<svg aria-hidden="true" style="position: absolute; width: 0; height: 0; overflow: hidden;" version="1.1" xmlns="http://www.w3.org/2000/svg" xmlns:xlink="http://www.w3.org/1999/xlink">
<defs>
<symbol id="icon-imdb" viewBox="0 0 64 32">
<path fill="#f6c700" style="fill: var(--color1, #f6c700)" d="M63.486 2.75c-0.172-1.409-1.218-2.532-2.549-2.75-5.836 0-52.525 0-58.361 0-1.458 0.24-2.575 1.563-2.575 3.159 0 2.565 0 23.079 0 25.643 0 1.767 1.366 3.199 3.052 3.199 5.74 0 51.667 0 57.407 0 1.552 0 2.834-1.216 3.026-2.789 0-5.292 0-23.815 0-26.461z"></path>
<path fill="#000" style="fill: var(--color2, #000)" d="M7.657 6.43h5.038v19.393h-5.038v-19.393z"></path>
<path fill="#000" style="fill: var(--color2, #000)" d="M22.214 15.364c-0.433-2.956-0.674-4.599-0.721-4.926-0.211-1.582-0.412-2.959-0.604-4.134-0.436 0-2.612 0-6.532 0v19.393h4.413l0.015-12.805 1.857 12.805h3.143l1.761-13.090 0.017 13.090h4.399v-19.393h-6.581l-1.167 9.060z"></path>
<path fill="#000" style="fill: var(--color2, #000)" d="M38.28 10.338c0.055 0.247 0.084 0.808 0.084 1.685 0 0.752 0 6.767 0 7.519 0 1.291-0.084 2.081-0.251 2.373-0.168 0.291-0.614 0.436-1.337 0.436 0-1.273 0-11.457 0-12.73 0.549 0 0.923 0.059 1.122 0.173 0.199 0.116 0.327 0.297 0.382 0.544zM40.556 25.499c0.6-0.131 1.103-0.363 1.511-0.693 0.407-0.331 0.693-0.789 0.857-1.376 0.164-0.585 0.262-1.748 0.262-3.487 0-0.68 0-6.129 0-6.81 0-1.835-0.072-3.065-0.183-3.69-0.113-0.626-0.392-1.195-0.839-1.705-0.448-0.51-1.102-0.877-1.961-1.1-0.86-0.223-2.262-0.336-4.701-0.336-0.251 0-1.503 0-3.758 0v19.393h6.103c1.407-0.044 2.31-0.109 2.709-0.198z"></path>
<path fill="#000" style="fill: var(--color2, #000)" d="M51.314 22.601c-0.093 0.246-0.499 0.371-0.806 0.371-0.3 0-0.5-0.119-0.602-0.359-0.102-0.238-0.151-0.783-0.151-1.635 0-0.512 0-4.613 0-5.125 0-0.883 0.044-1.434 0.134-1.654 0.088-0.217 0.283-0.328 0.583-0.328 0.307 0 0.719 0.125 0.825 0.375 0.105 0.251 0.158 0.786 0.158 1.606 0 0.331 0 1.987 0 4.97-0.032 1.021-0.078 1.614-0.14 1.779zM44.901 25.528h4.536c0.189-0.741 0.293-1.153 0.314-1.235 0.411 0.497 0.862 0.87 1.358 1.117 0.494 0.248 1.232 0.372 1.804 0.372 0.796 0 1.483-0.209 2.062-0.627 0.579-0.417 0.947-0.912 1.104-1.481 0.157-0.57 0.235-1.435 0.235-2.599 0-0.544 0-4.897 0-5.441 0-1.17-0.026-1.934-0.078-2.293s-0.206-0.724-0.464-1.099c-0.257-0.374-0.632-0.665-1.122-0.872s-1.069-0.311-1.736-0.311c-0.58 0-1.322 0.116-1.816 0.344-0.494 0.229-0.942 0.575-1.344 1.040 0-0.421 0-2.523 0-6.309h-4.854v19.393z"></path>
</symbol>
<symbol id="icon-facebook" viewBox="0 0 32 32">
<path d="M29 0h-26c-1.65 0-3 1.35-3 3v26c0 1.65 1.35 3 3 3h13v-14h-4v-4h4v-2c0-3.306 2.694-6 6-6h4v4h-4c-1.1 0-2 0.9-2 2v2h6l-1 4h-5v14h9c1.65 0 3-1.35 3-3v-26c0-1.65-1.35-3-3-3z"></path>
</symbol>
<symbol id="icon-instagram" viewBox="0 0 32 32">
<path d="M16 2.881c4.275 0 4.781 0.019 6.462 0.094 1.563 0.069 2.406 0.331 2.969 0.55 0.744 0.288 1.281 0.638 1.837 1.194 0.563 0.563 0.906 1.094 1.2 1.838 0.219 0.563 0.481 1.412 0.55 2.969 0.075 1.688 0.094 2.194 0.094 6.463s-0.019 4.781-0.094 6.463c-0.069 1.563-0.331 2.406-0.55 2.969-0.288 0.744-0.637 1.281-1.194 1.837-0.563 0.563-1.094 0.906-1.837 1.2-0.563 0.219-1.413 0.481-2.969 0.55-1.688 0.075-2.194 0.094-6.463 0.094s-4.781-0.019-6.463-0.094c-1.563-0.069-2.406-0.331-2.969-0.55-0.744-0.288-1.281-0.637-1.838-1.194-0.563-0.563-0.906-1.094-1.2-1.837-0.219-0.563-0.481-1.413-0.55-2.969-0.075-1.688-0.094-2.194-0.094-6.463s0.019-4.781 0.094-6.463c0.069-1.563 0.331-2.406 0.55-2.969 0.288-0.744 0.638-1.281 1.194-1.838 0.563-0.563 1.094-0.906 1.838-1.2 0.563-0.219 1.412-0.481 2.969-0.55 1.681-0.075 2.188-0.094 6.463-0.094zM16 0c-4.344 0-4.887 0.019-6.594 0.094-1.7 0.075-2.869 0.35-3.881 0.744-1.056 0.412-1.95 0.956-2.837 1.85-0.894 0.888-1.438 1.781-1.85 2.831-0.394 1.019-0.669 2.181-0.744 3.881-0.075 1.713-0.094 2.256-0.094 6.6s0.019 4.887 0.094 6.594c0.075 1.7 0.35 2.869 0.744 3.881 0.413 1.056 0.956 1.95 1.85 2.837 0.887 0.887 1.781 1.438 2.831 1.844 1.019 0.394 2.181 0.669 3.881 0.744 1.706 0.075 2.25 0.094 6.594 0.094s4.888-0.019 6.594-0.094c1.7-0.075 2.869-0.35 3.881-0.744 1.050-0.406 1.944-0.956 2.831-1.844s1.438-1.781 1.844-2.831c0.394-1.019 0.669-2.181 0.744-3.881 0.075-1.706 0.094-2.25 0.094-6.594s-0.019-4.887-0.094-6.594c-0.075-1.7-0.35-2.869-0.744-3.881-0.394-1.063-0.938-1.956-1.831-2.844-0.887-0.887-1.781-1.438-2.831-1.844-1.019-0.394-2.181-0.669-3.881-0.744-1.712-0.081-2.256-0.1-6.6-0.1v0z"></path>
<path d="M16 7.781c-4.537 0-8.219 3.681-8.219 8.219s3.681 8.219 8.219 8.219 8.219-3.681 8.219-8.219c0-4.537-3.681-8.219-8.219-8.219zM16 21.331c-2.944 0-5.331-2.387-5.331-5.331s2.387-5.331 5.331-5.331c2.944 0 5.331 2.387 5.331 5.331s-2.387 5.331-5.331 5.331z"></path>
<path d="M26.462 7.456c0 1.060-0.859 1.919-1.919 1.919s-1.919-0.859-1.919-1.919c0-1.060 0.859-1.919 1.919-1.919s1.919 0.859 1.919 1.919z"></path>
</symbol>
<symbol id="icon-youtube" viewBox="0 0 32 32">
<path d="M31.681 9.6c0 0-0.313-2.206-1.275-3.175-1.219-1.275-2.581-1.281-3.206-1.356-4.475-0.325-11.194-0.325-11.194-0.325h-0.012c0 0-6.719 0-11.194 0.325-0.625 0.075-1.987 0.081-3.206 1.356-0.963 0.969-1.269 3.175-1.269 3.175s-0.319 2.588-0.319 5.181v2.425c0 2.587 0.319 5.181 0.319 5.181s0.313 2.206 1.269 3.175c1.219 1.275 2.819 1.231 3.531 1.369 2.563 0.244 10.881 0.319 10.881 0.319s6.725-0.012 11.2-0.331c0.625-0.075 1.988-0.081 3.206-1.356 0.962-0.969 1.275-3.175 1.275-3.175s0.319-2.587 0.319-5.181v-2.425c-0.006-2.588-0.325-5.181-0.325-5.181zM12.694 20.15v-8.994l8.644 4.513-8.644 4.481z"></path>
</symbol>
<symbol id="icon-linkedin" viewBox="0 0 32 32">
<path d="M29 0h-26c-1.65 0-3 1.35-3 3v26c0 1.65 1.35 3 3 3h26c1.65 0 3-1.35 3-3v-26c0-1.65-1.35-3-3-3zM12 26h-4v-14h4v14zM10 10c-1.106 0-2-0.894-2-2s0.894-2 2-2c1.106 0 2 0.894 2 2s-0.894 2-2 2zM26 26h-4v-8c0-1.106-0.894-2-2-2s-2 0.894-2 2v8h-4v-14h4v2.481c0.825-1.131 2.087-2.481 3.5-2.481 2.488 0 4.5 2.238 4.5 5v9z"></path>
</symbol>
</defs>
</svg>
